<svg width="30" height="10" viewBox="0 100 300 100" fill="none" xmlns="http://www.w3.org/2000/svg">
<path d="M205.879 73.4872H62.73C54.6779 73.4872 48.1914 67.8556 48.1914 60.8646C48.1914 53.8736 54.6779 
48.2419 62.73 48.2419H205.879C213.931 48.2419 220.418 53.8736 220.418 60.8646C220.418 67.8556 213.931 
73.4872 205.879 73.4872ZM220.418 117.181C220.418 110.19 213.931 104.558 205.879 104.558H62.73C54.6779 
104.558 48.1914 110.19 48.1914 117.181C48.1914 124.172 54.6779 129.804 62.73 129.804H205.879C213.931 
129.804 220.418 124.172 220.418 117.181ZM220.418 173.497C220.418 166.506 213.931 160.875 205.879 
160.875H62.73C54.6779 160.875 48.1914 166.506 48.1914 173.497C48.1914 180.488 54.6779 186.12 62.73 
186.12H205.879C213.931 186.12 220.418 180.488 220.418 173.497Z" fill="black"/>
</svg>
